<mxfile host="app.diagrams.net" agent="Mozilla/5.0 (Windows NT 10.0; Win64; x64) AppleWebKit/537.36 (KHTML, like Gecko) Chrome/140.0.0.0 Safari/537.36" version="28.2.5">
  <diagram name="Page-1" id="W11dSp530jiu-v-lPvCD">
    <mxGraphModel dx="992" dy="1635" grid="1" gridSize="10" guides="1" tooltips="1" connect="1" arrows="1" fold="1" page="1" pageScale="1" pageWidth="850" pageHeight="1100" math="0" shadow="0">
      <root>
        <mxCell id="0" />
        <mxCell id="1" parent="0" />
        <mxCell id="yf6k6arRkZw3j3_YJg2I-1" value="Customer" style="swimlane;fontStyle=1;align=center;verticalAlign=top;childLayout=stackLayout;horizontal=1;startSize=26;horizontalStack=0;resizeParent=1;resizeParentMax=0;resizeLast=0;collapsible=1;marginBottom=0;whiteSpace=wrap;html=1;" parent="1" vertex="1">
          <mxGeometry x="320" y="-110" width="160" height="230" as="geometry" />
        </mxCell>
        <mxCell id="yf6k6arRkZw3j3_YJg2I-2" value="&lt;div&gt;Customer_ID (String)&lt;/div&gt;&lt;div&gt;Address (String)&lt;/div&gt;&lt;div&gt;Email (String)&lt;/div&gt;&lt;div&gt;Name (String)&lt;/div&gt;&lt;div&gt;&lt;br&gt;&lt;/div&gt;&lt;div&gt;&lt;br&gt;&lt;/div&gt;" style="text;strokeColor=none;fillColor=none;align=left;verticalAlign=top;spacingLeft=4;spacingRight=4;overflow=hidden;rotatable=0;points=[[0,0.5],[1,0.5]];portConstraint=eastwest;whiteSpace=wrap;html=1;" parent="yf6k6arRkZw3j3_YJg2I-1" vertex="1">
          <mxGeometry y="26" width="160" height="134" as="geometry" />
        </mxCell>
        <mxCell id="yf6k6arRkZw3j3_YJg2I-3" value="" style="line;strokeWidth=1;fillColor=none;align=left;verticalAlign=middle;spacingTop=-1;spacingLeft=3;spacingRight=3;rotatable=0;labelPosition=right;points=[];portConstraint=eastwest;strokeColor=inherit;" parent="yf6k6arRkZw3j3_YJg2I-1" vertex="1">
          <mxGeometry y="160" width="160" height="8" as="geometry" />
        </mxCell>
        <mxCell id="yf6k6arRkZw3j3_YJg2I-4" value="Display_Name()&lt;div&gt;Adjust_Email()&lt;/div&gt;&lt;div&gt;&lt;br&gt;&lt;/div&gt;" style="text;strokeColor=none;fillColor=none;align=left;verticalAlign=top;spacingLeft=4;spacingRight=4;overflow=hidden;rotatable=0;points=[[0,0.5],[1,0.5]];portConstraint=eastwest;whiteSpace=wrap;html=1;" parent="yf6k6arRkZw3j3_YJg2I-1" vertex="1">
          <mxGeometry y="168" width="160" height="62" as="geometry" />
        </mxCell>
        <mxCell id="yf6k6arRkZw3j3_YJg2I-5" value="Products" style="swimlane;fontStyle=1;align=center;verticalAlign=top;childLayout=stackLayout;horizontal=1;startSize=26;horizontalStack=0;resizeParent=1;resizeParentMax=0;resizeLast=0;collapsible=1;marginBottom=0;whiteSpace=wrap;html=1;" parent="1" vertex="1">
          <mxGeometry x="40" y="40" width="160" height="230" as="geometry" />
        </mxCell>
        <mxCell id="yf6k6arRkZw3j3_YJg2I-6" value="&lt;div&gt;Product_ID (String)&lt;/div&gt;Description (String)&lt;div&gt;Reviews (List)&lt;/div&gt;&lt;div&gt;Price (Float)&lt;/div&gt;&lt;div&gt;&lt;br&gt;&lt;/div&gt;" style="text;strokeColor=none;fillColor=none;align=left;verticalAlign=top;spacingLeft=4;spacingRight=4;overflow=hidden;rotatable=0;points=[[0,0.5],[1,0.5]];portConstraint=eastwest;whiteSpace=wrap;html=1;" parent="yf6k6arRkZw3j3_YJg2I-5" vertex="1">
          <mxGeometry y="26" width="160" height="134" as="geometry" />
        </mxCell>
        <mxCell id="yf6k6arRkZw3j3_YJg2I-7" value="" style="line;strokeWidth=1;fillColor=none;align=left;verticalAlign=middle;spacingTop=-1;spacingLeft=3;spacingRight=3;rotatable=0;labelPosition=right;points=[];portConstraint=eastwest;strokeColor=inherit;" parent="yf6k6arRkZw3j3_YJg2I-5" vertex="1">
          <mxGeometry y="160" width="160" height="8" as="geometry" />
        </mxCell>
        <mxCell id="yf6k6arRkZw3j3_YJg2I-8" value="Display_Name()&lt;div&gt;Display_Price()&lt;/div&gt;" style="text;strokeColor=none;fillColor=none;align=left;verticalAlign=top;spacingLeft=4;spacingRight=4;overflow=hidden;rotatable=0;points=[[0,0.5],[1,0.5]];portConstraint=eastwest;whiteSpace=wrap;html=1;" parent="yf6k6arRkZw3j3_YJg2I-5" vertex="1">
          <mxGeometry y="168" width="160" height="62" as="geometry" />
        </mxCell>
        <mxCell id="yf6k6arRkZw3j3_YJg2I-9" value="Vendors" style="swimlane;fontStyle=1;align=center;verticalAlign=top;childLayout=stackLayout;horizontal=1;startSize=26;horizontalStack=0;resizeParent=1;resizeParentMax=0;resizeLast=0;collapsible=1;marginBottom=0;whiteSpace=wrap;html=1;" parent="1" vertex="1">
          <mxGeometry x="600" y="300" width="160" height="230" as="geometry" />
        </mxCell>
        <mxCell id="yf6k6arRkZw3j3_YJg2I-10" value="Name (String)&lt;br&gt;ID (String)&lt;div&gt;Location (String)&lt;/div&gt;&lt;div&gt;&lt;br&gt;&lt;/div&gt;" style="text;strokeColor=none;fillColor=none;align=left;verticalAlign=top;spacingLeft=4;spacingRight=4;overflow=hidden;rotatable=0;points=[[0,0.5],[1,0.5]];portConstraint=eastwest;whiteSpace=wrap;html=1;" parent="yf6k6arRkZw3j3_YJg2I-9" vertex="1">
          <mxGeometry y="26" width="160" height="134" as="geometry" />
        </mxCell>
        <mxCell id="yf6k6arRkZw3j3_YJg2I-11" value="" style="line;strokeWidth=1;fillColor=none;align=left;verticalAlign=middle;spacingTop=-1;spacingLeft=3;spacingRight=3;rotatable=0;labelPosition=right;points=[];portConstraint=eastwest;strokeColor=inherit;" parent="yf6k6arRkZw3j3_YJg2I-9" vertex="1">
          <mxGeometry y="160" width="160" height="8" as="geometry" />
        </mxCell>
        <mxCell id="yf6k6arRkZw3j3_YJg2I-12" value="List_Product()" style="text;strokeColor=none;fillColor=none;align=left;verticalAlign=top;spacingLeft=4;spacingRight=4;overflow=hidden;rotatable=0;points=[[0,0.5],[1,0.5]];portConstraint=eastwest;whiteSpace=wrap;html=1;" parent="yf6k6arRkZw3j3_YJg2I-9" vertex="1">
          <mxGeometry y="168" width="160" height="62" as="geometry" />
        </mxCell>
        <mxCell id="yf6k6arRkZw3j3_YJg2I-17" value="Accounts" style="swimlane;fontStyle=1;align=center;verticalAlign=top;childLayout=stackLayout;horizontal=1;startSize=26;horizontalStack=0;resizeParent=1;resizeParentMax=0;resizeLast=0;collapsible=1;marginBottom=0;whiteSpace=wrap;html=1;" parent="1" vertex="1">
          <mxGeometry x="600" y="40" width="160" height="230" as="geometry" />
        </mxCell>
        <mxCell id="yf6k6arRkZw3j3_YJg2I-18" value="Username (String)&lt;div&gt;Password (String)&lt;/div&gt;&lt;div&gt;Email (String)&lt;/div&gt;" style="text;strokeColor=none;fillColor=none;align=left;verticalAlign=top;spacingLeft=4;spacingRight=4;overflow=hidden;rotatable=0;points=[[0,0.5],[1,0.5]];portConstraint=eastwest;whiteSpace=wrap;html=1;" parent="yf6k6arRkZw3j3_YJg2I-17" vertex="1">
          <mxGeometry y="26" width="160" height="134" as="geometry" />
        </mxCell>
        <mxCell id="yf6k6arRkZw3j3_YJg2I-19" value="" style="line;strokeWidth=1;fillColor=none;align=left;verticalAlign=middle;spacingTop=-1;spacingLeft=3;spacingRight=3;rotatable=0;labelPosition=right;points=[];portConstraint=eastwest;strokeColor=inherit;" parent="yf6k6arRkZw3j3_YJg2I-17" vertex="1">
          <mxGeometry y="160" width="160" height="8" as="geometry" />
        </mxCell>
        <mxCell id="yf6k6arRkZw3j3_YJg2I-20" value="Change_Password()&lt;div&gt;Logout()&lt;/div&gt;&lt;div&gt;Log-In()&lt;/div&gt;" style="text;strokeColor=none;fillColor=none;align=left;verticalAlign=top;spacingLeft=4;spacingRight=4;overflow=hidden;rotatable=0;points=[[0,0.5],[1,0.5]];portConstraint=eastwest;whiteSpace=wrap;html=1;" parent="yf6k6arRkZw3j3_YJg2I-17" vertex="1">
          <mxGeometry y="168" width="160" height="62" as="geometry" />
        </mxCell>
        <mxCell id="yf6k6arRkZw3j3_YJg2I-25" value="Cart" style="swimlane;fontStyle=1;align=center;verticalAlign=top;childLayout=stackLayout;horizontal=1;startSize=26;horizontalStack=0;resizeParent=1;resizeParentMax=0;resizeLast=0;collapsible=1;marginBottom=0;whiteSpace=wrap;html=1;" parent="1" vertex="1">
          <mxGeometry x="40" y="300" width="160" height="230" as="geometry" />
        </mxCell>
        <mxCell id="yf6k6arRkZw3j3_YJg2I-26" value="&lt;div&gt;Cart_ID (String)&lt;/div&gt;Product_IDs (Lists)&lt;div&gt;Total_Price (Float)&lt;/div&gt;" style="text;strokeColor=none;fillColor=none;align=left;verticalAlign=top;spacingLeft=4;spacingRight=4;overflow=hidden;rotatable=0;points=[[0,0.5],[1,0.5]];portConstraint=eastwest;whiteSpace=wrap;html=1;" parent="yf6k6arRkZw3j3_YJg2I-25" vertex="1">
          <mxGeometry y="26" width="160" height="134" as="geometry" />
        </mxCell>
        <mxCell id="yf6k6arRkZw3j3_YJg2I-27" value="" style="line;strokeWidth=1;fillColor=none;align=left;verticalAlign=middle;spacingTop=-1;spacingLeft=3;spacingRight=3;rotatable=0;labelPosition=right;points=[];portConstraint=eastwest;strokeColor=inherit;" parent="yf6k6arRkZw3j3_YJg2I-25" vertex="1">
          <mxGeometry y="160" width="160" height="8" as="geometry" />
        </mxCell>
        <mxCell id="yf6k6arRkZw3j3_YJg2I-28" value="Remove_Item()&lt;div&gt;Add_Item()&lt;/div&gt;&lt;div&gt;Print_Reciept()&lt;/div&gt;" style="text;strokeColor=none;fillColor=none;align=left;verticalAlign=top;spacingLeft=4;spacingRight=4;overflow=hidden;rotatable=0;points=[[0,0.5],[1,0.5]];portConstraint=eastwest;whiteSpace=wrap;html=1;" parent="yf6k6arRkZw3j3_YJg2I-25" vertex="1">
          <mxGeometry y="168" width="160" height="62" as="geometry" />
        </mxCell>
        <mxCell id="yf6k6arRkZw3j3_YJg2I-39" value="Admin" style="swimlane;fontStyle=1;align=center;verticalAlign=top;childLayout=stackLayout;horizontal=1;startSize=26;horizontalStack=0;resizeParent=1;resizeParentMax=0;resizeLast=0;collapsible=1;marginBottom=0;whiteSpace=wrap;html=1;" parent="1" vertex="1">
          <mxGeometry x="320" y="400" width="160" height="230" as="geometry" />
        </mxCell>
        <mxCell id="yf6k6arRkZw3j3_YJg2I-40" value="Admin_Key (String)" style="text;strokeColor=none;fillColor=none;align=left;verticalAlign=top;spacingLeft=4;spacingRight=4;overflow=hidden;rotatable=0;points=[[0,0.5],[1,0.5]];portConstraint=eastwest;whiteSpace=wrap;html=1;" parent="yf6k6arRkZw3j3_YJg2I-39" vertex="1">
          <mxGeometry y="26" width="160" height="134" as="geometry" />
        </mxCell>
        <mxCell id="yf6k6arRkZw3j3_YJg2I-41" value="" style="line;strokeWidth=1;fillColor=none;align=left;verticalAlign=middle;spacingTop=-1;spacingLeft=3;spacingRight=3;rotatable=0;labelPosition=right;points=[];portConstraint=eastwest;strokeColor=inherit;" parent="yf6k6arRkZw3j3_YJg2I-39" vertex="1">
          <mxGeometry y="160" width="160" height="8" as="geometry" />
        </mxCell>
        <mxCell id="yf6k6arRkZw3j3_YJg2I-42" value="Ban_User()&lt;div&gt;Pull_User_Info()&lt;/div&gt;&lt;div&gt;Remove_Product()&lt;/div&gt;" style="text;strokeColor=none;fillColor=none;align=left;verticalAlign=top;spacingLeft=4;spacingRight=4;overflow=hidden;rotatable=0;points=[[0,0.5],[1,0.5]];portConstraint=eastwest;whiteSpace=wrap;html=1;" parent="yf6k6arRkZw3j3_YJg2I-39" vertex="1">
          <mxGeometry y="168" width="160" height="62" as="geometry" />
        </mxCell>
      </root>
    </mxGraphModel>
  </diagram>
</mxfile>
